<svg xmlns="http://www.w3.org/2000/svg" width="397" height="450" viewBox="0 0 397 450" fill="none">
<path d="M60.0015 239.211C92.5015 232.711 114.668 246.045 119.502 255.711C118.168 256.545 136.402 255.711 220.002 245.711C300.402 206.511 358.502 214.045 377.502 222.711C379.376 224.54 381.255 226.711 383.062 229.211M60.0015 239.211C60.0015 207.211 31.1103 195.211 16.6647 193.211M60.0015 239.211L43.5015 255.711C47.1682 268.378 59.0015 292.811 77.0015 289.211C95.0015 285.611 112.835 269.378 119.502 261.711M16.6647 193.211C41.7458 138.969 90.9862 101.194 119.502 86.2112C119.502 62.5445 119.502 14.2112 119.502 10.2112C126.702 -4.58881 136.168 1.71119 140.002 6.71119C154.668 25.0445 184.202 62.5112 185.002 65.7112H181.502C192.835 62.3779 217.902 59.7112 227.502 75.7112C242.302 67.3112 276.002 72.2112 291.002 75.7112L372.002 6.71119C378.668 1.54452 392.002 -4.18882 392.002 14.2112C403.602 116.611 383.502 161.878 372.002 171.711C375.835 188.711 383.414 224.011 383.062 229.211M16.6647 193.211C7.14954 213.79 1.11152 236.738 1.00151 261.711C0.601509 352.511 79.8348 412.878 119.502 431.711C159.668 452.045 259.902 471.711 339.502 387.711C411.824 311.391 401.018 254.058 383.062 229.211M224.002 182.711C223.938 182.757 223.874 182.804 223.81 182.851M223.81 182.851C217.159 187.79 208.154 200.533 224.002 213.211C217.502 214.711 204.602 213.911 205.002 198.711C205.707 192.471 210.457 180.564 223.81 182.851ZM47.5015 320.711C73.5015 337.545 138.702 361.811 191.502 324.211C150.302 335.811 120.335 329.045 110.502 324.211C98.1682 311.378 68.3015 292.711 47.5015 320.711ZM181.502 200.211L220.002 171.711L256.502 200.211L220.002 222.711L181.502 200.211ZM66.5015 182.711L86.5015 162.211C102.168 168.878 124.902 185.811 90.5015 200.211C66.1015 194.611 64.3348 186.211 66.5015 182.711ZM88.5015 172.711C84.6682 176.211 79.3015 185.211 88.5015 193.211C84.5015 193.711 76.5015 192.311 76.5015 182.711C77.1682 178.378 80.5015 170.311 88.5015 172.711Z" stroke="black"/>
</svg>
